
<svg xmlns="http://www.w3.org/2000/svg" width="400" height="400" viewBox="0 0 105.83333 105.83334">
  <g>
    <g id="layer101-7" fill="#42d31a" stroke="none" transform="matrix(0.02645833,0,0,0.02645833,1.5749007,12.284229)">
      <path id="path850-4" fill="#ffffff" d="m 1280.4707,686.69531 c -0.01,22.20423 -0.016,44.44013 0.068,66.65703 0.084,55.93779 -0.8508,111.89884 1.1868,167.81393 0.9284,12.33189 1.5671,24.78894 4.6894,36.81119 3.4404,13.85492 10.149,27.07869 20.2601,37.25945 5.6021,5.65309 11.9931,10.65899 19.3162,13.87819 5.1599,2.3374 10.6319,3.9289 16.1788,5.0392 10.3789,6.6083 19.2432,15.2474 27.8938,23.9201 3.4909,3.5031 6.9375,7.0498 10.407,10.574 0,222.3555 0,444.711 0,667.0664 113.8477,0 227.6953,0 341.543,0 -2.22,-253.1679 -4.4413,-506.3359 -6.666,-759.50386 -6.8956,-13.40494 -13.5797,-26.91748 -20.0979,-40.50973 -12.4047,-25.68564 -24.7698,-51.4743 -39.826,-75.74304 -33.655,-53.72827 -83.5278,-97.1042 -141.3556,-123.07543 -9.2302,-4.14374 -18.5379,-8.1284 -28.0477,-11.59138 -35.357,-13.00439 -72.4039,-20.6336 -109.511,-26.63768 -12.4716,-2.03376 -24.9757,-3.86238 -37.4394,-5.94623 -19.5332,-3.17489 -39.0664,-6.34965 -58.5994,-9.52581 0,7.83789 0,15.67578 0,23.51367 z M 520.27344,725.8125 c 0.51907,111.34999 0.96952,222.70029 1.52638,334.0501 0.58209,118.1661 1.22926,236.3319 2.01844,354.4967 0.49764,72.961 1.05502,145.9215 1.53511,218.8826 0.17321,25.3256 0.34611,50.6512 0.51968,75.9769 17.86858,0.4324 35.73749,0.8516 53.60547,1.3085 1.03062,0.025 2.3326,0.062 3.4675,0.091 4.54013,0.1212 9.08026,0.2424 13.62039,0.3636 0.37029,0.014 1.2002,0.036 1.74649,0.053 5.0864,0.1482 10.27729,0.3032 15.29843,0.4472 48.4616,1.4438 96.92395,3.1047 145.41015,3.4004 0.37331,3e-4 1.17261,0.011 1.70899,0.016 5.62134,-0.027 11.23906,-0.2875 16.85468,-0.5222 12.96573,-0.6494 26.0481,-2.5951 38.08602,-7.6514 4.97329,-2.0731 9.73517,-4.6599 14.16086,-7.7346 15.68559,9.0748 32.12952,16.9813 49.44118,22.435 11.90017,3.8874 24.02286,7.101 36.3148,9.4846 37.36123,7.2942 75.95651,7.4857 113.55419,1.8405 35.0462,-5.2243 69.2838,-15.4506 101.7235,-29.6561 16.501,-7.0964 32.4303,-15.5196 47.564,-25.1962 42.8247,-27.3309 79.3566,-64.091 107.7282,-106.1477 5.4612,-8.08 10.7302,-16.3067 15.2848,-24.9381 12.1853,-22.8095 20.5025,-47.6277 24.9562,-73.0862 10.4193,-55.7928 11.942,-113.0068 7.2001,-169.4876 -1.594,-18.7067 -3.6892,-37.3947 -7.1837,-55.8516 -6.0227,-32.2377 -15.8857,-63.9648 -31.3779,-92.9597 -5.0416,-9.4114 -10.6949,-18.4783 -16.4316,-27.4772 -24.4716,-37.9511 -54.3609,-72.6909 -89.93,-100.6589 -5.963,-4.7015 -12.0582,-9.2525 -18.5122,-13.2637 -28.0516,-17.80505 -59.3337,-30.04471 -91.4025,-38.41113 -11.902,-3.11152 -23.9271,-5.78698 -36.0895,-7.66116 -39.8361,-6.30093 -80.74885,-6.40361 -120.484,0.71789 -21.10141,3.79801 -41.84372,9.67085 -61.71885,17.72749 0,-93.56185 0,-187.1237 0,-280.68555 -113.43099,0 -226.86198,0 -340.29297,0 0.0326,6.69922 0.0651,13.39844 0.0977,20.09766 z M 2913.6387,962.29297 c -23.0048,0.36023 -45.9624,2.85952 -68.5586,7.16102 -43.4422,8.3267 -85.5726,23.6887 -123.9692,45.68101 -48.0539,27.7715 -88.3554,68.5095 -116.3784,116.3572 -8.7014,14.8118 -16.155,30.3408 -22.4845,46.3067 -12.9548,32.4261 -21.4551,66.5386 -26.33,101.0859 -9.9956,-44.8913 -29.0393,-87.6195 -54.8462,-125.6349 -23.893,-35.24 -53.5489,-66.5378 -87.3017,-92.4759 -22.012,-16.8747 -45.7027,-31.5344 -70.4905,-43.9649 -56.5215,-28.28394 -119.0289,-44.69115 -182.2071,-47.24021 -16.1222,-0.50266 -32.2767,-0.13917 -48.3539,1.17889 -77.0503,6.38557 -152.277,33.88882 -215.1219,78.95112 -34.7118,24.8969 -65.6003,55.2259 -90.5724,89.914 -23.739,32.9695 -42.2663,69.9006 -52.8875,109.1828 -4.4087,16.2406 -7.3993,32.8647 -8.8876,49.628 -2.6445,30.8621 -5.1317,61.8474 -3.8018,92.8443 0.3314,8.4324 0.9906,16.86 2.3198,25.1982 3.4814,22.421 10.6948,44.0973 19.5596,64.9269 5.247,12.3344 11.0243,24.4369 16.9779,36.4428 31.8241,58.8252 77.1815,110.0216 130.7022,149.9999 31.5966,23.2177 67.4758,40.315 104.9506,51.6607 38.0669,11.5598 77.7511,17.4054 117.4773,18.6444 15.4303,0.4376 30.8792,0.019 46.2793,-1.0016 47.0865,-3.1936 93.8719,-13.0883 137.6589,-30.8522 6.4926,-2.6561 12.9735,-5.3671 19.1935,-8.6229 27.5973,-14.1166 53.5113,-31.4215 77.541,-50.9794 21.8757,-17.7953 42.219,-37.438 61.1332,-58.3428 12.1637,-13.4963 23.1687,-28.0285 33.0042,-43.3015 21.274,-33.078 36.9109,-69.7512 46.2102,-107.9585 4.2831,38.6667 13.2635,77.0627 29.2332,112.6411 10.0327,22.3166 22.8797,43.4164 38.5872,62.2009 20.8735,25.3275 46.3558,46.6015 73.9904,64.1901 28.8252,18.3955 59.9197,32.9527 91.6574,45.5489 13.7523,5.3711 28.0412,9.3222 42.5455,12.0499 0,105.5078 -1e-4,211.0156 0,316.5234 17.8008,-0.7584 35.6012,-1.5249 53.4023,-2.2773 1.6885,-0.072 3.597,-0.1479 5.3701,-0.2213 1.7887,-0.073 3.5775,-0.1468 5.3662,-0.2201 0.353,-0.01 1.1999,-0.045 1.7421,-0.065 3.8222,-0.1466 7.8009,-0.2963 11.5255,-0.4411 49.7214,-1.8773 99.4706,-3.2866 149.1317,-6.466 33.9696,-2.466 67.8074,-10.2362 98.5701,-25.0812 8.4688,-4.1903 16.9298,-8.4115 25.1317,-13.1096 32.0081,-18.2073 60.9672,-41.4949 86.6991,-67.7727 3.3454,-3.3225 6.471,-6.8544 9.4648,-10.4949 20.7699,-24.6626 39.0583,-51.7124 51.7516,-81.448 5.6868,-13.2491 10.096,-27.0317 13.3389,-41.0766 8.7008,-36.4397 12.2432,-73.8739 14.1605,-111.2173 0.9623,-18.9975 1.6228,-38.0088 2.3039,-57.0179 2.7291,-120.9514 1.973,-241.9416 1.9802,-362.9138 -0.011,-29.6295 0.093,-59.2588 0.063,-88.8883 0,-68.6022 0,-137.2044 0,-205.80665 -110,0 -220,0 -330,0 0,2.90169 0,5.80339 0,8.70508 -36.8773,-15.30138 -76.9539,-22.5508 -116.832,-22.13086 z m -747.1426,323.41013 c 3.8975,0.1606 7.919,0.3482 11.5644,1.8653 1.2852,0.8579 2.333,2.0288 3.5361,2.9977 13.2385,11.6419 25.7632,24.1685 36.7413,37.9808 1.4594,2.6446 1.729,5.741 2.0013,8.696 0.5121,7.6373 -0.1864,15.2863 -0.8163,22.8943 -2.5563,19.4615 -13.0494,37.6507 -28.2802,49.9666 -7.5837,6.1024 -16.4679,10.6332 -25.9539,12.8858 -12.18,3.4231 -25.3465,2.265 -37.1521,-2.0395 -14.9394,-5.4115 -28.2121,-15.6793 -36.6829,-29.1781 -3.268,-5.2193 -5.6181,-10.9627 -7.4177,-16.8364 -4.6229,-15.9203 -2.6825,-33.4201 4.359,-48.3372 2.6024,-5.5316 5.9894,-10.6723 9.899,-15.3646 6.7055,-9.6808 16.1555,-17.7104 27.3573,-21.6194 3.6179,-1.2947 7.4265,-1.8924 11.2212,-2.3891 7.8676,-1.2439 15.8509,-1.3976 23.7993,-1.5202 0.1799,0 1.1975,-0.014 1.7022,-0.021 1.3744,-0.031 2.7478,-0.01 4.122,0.019 z m 802.1523,0.7578 c 6.2411,0.01 12.496,0.8784 18.4287,2.8476 17.2492,5.596 31.9799,18.6541 39.3993,35.2264 2.3577,4.8767 4.3372,9.9481 5.6176,15.2187 3.1408,12.5826 3.0725,26.1462 -1.2802,38.4377 -1.74,4.8612 -4.2062,9.4619 -7.306,13.5919 -0.1626,0.2111 -0.6712,0.9199 -0.9788,1.323 -7.8429,10.285 -18.7452,17.8954 -30.4573,23.1772 -8.305,3.7248 -17.0808,6.4131 -26.0447,7.9789 -5.9531,0.128 -11.7209,-1.739 -17.2359,-3.7937 -6.2487,-2.4267 -12.3112,-5.3129 -18.2833,-8.3475 -10.3547,-6.5826 -18.0299,-16.8346 -22.6168,-28.121 -5.9848,-14.6173 -7.3331,-31.1502 -3.5419,-46.5013 1.8073,-7.2759 4.9179,-14.2292 9.2222,-20.3722 9.9611,-15.8625 26.9515,-27.2126 45.5003,-30.0295 3.1681,-0.473 6.374,-0.6896 9.5768,-0.6362 z M 935.12891,1297.418 c 6.87242,0.049 13.75338,1.3378 20.08803,4.0339 14.47372,6.056 26.46556,18.0456 32.14439,32.7115 2.94903,7.8837 3.9363,16.4279 3.42192,24.804 -0.80364,12.2396 -4.96824,24.3016 -12.15607,34.2632 -7.7404,8.3728 -17.90754,14.2238 -28.63219,17.9007 -12.36612,4.1794 -25.62688,5.6908 -38.61806,4.455 -10.07504,-1.3293 -19.33311,-7.0405 -25.54928,-15.0081 -8.19089,-9.4304 -12.72819,-21.6497 -13.95325,-33.9933 -1.41948,-14.035 1.21576,-28.6078 8.2192,-40.9172 4.35498,-7.5835 10.55635,-14.1898 18.19256,-18.5241 11.07894,-6.5416 23.99168,-9.8681 36.84275,-9.7256 z"></path>
    </g>
    <g id="layer101-3" fill="#42d31a" stroke="none" transform="matrix(0.02645833,0,0,0.02645833,7e-7,1.5658333e-6)">
      <path d="m 1966,3778 c -17,-16 -76,-144 -187,-405 l -162,-383 h -482 c -279,0 -505,-4 -536,-10 -80,-15 -188,-72 -246,-130 -59,-59 -116,-162 -132,-238 -8,-36 -11,-314 -11,-885 0,-716 2,-841 15,-892 48,-184 201,-325 385,-354 90,-15 2691,-15 2780,0 179,28 327,156 380,326 19,63 20,92 20,917 0,537 -4,867 -11,895 -27,119 -129,251 -237,309 -111,59 -138,62 -668,62 h -481 l -162,383 c -90,210 -170,389 -179,398 -30,30 -58,32 -86,7 z M 3210,2415 c 30,-17 69,-49 87,-73 59,-78 63,-107 63,-494 v -348 h -105 -105 v 32 31 l -22,-20 c -55,-50 -129,-67 -214,-50 -160,33 -244,147 -244,331 0,154 42,231 156,287 51,25 77,32 122,32 72,-1 132,-17 167,-45 l 28,-22 -7,44 c -14,87 -60,130 -140,130 h -46 v 101 101 l 103,-4 c 90,-3 108,-7 157,-33 z M 1176,2108 c 57,-26 112,-82 138,-137 28,-63 29,-212 2,-290 -20,-59 -81,-133 -130,-159 -102,-53 -232,-44 -303,21 l -23,20 V 1397 1230 H 750 640 l 2,443 3,442 108,3 c 102,3 107,2 107,-18 0,-25 3,-25 49,5 70,47 172,48 267,3 z m 1171,10 c 61,-22 144,-93 177,-152 109,-190 -15,-420 -251,-466 -148,-29 -308,43 -378,171 -22,42 -30,70 -33,130 -4,67 -1,83 23,137 29,65 95,136 155,167 87,45 207,50 307,13 z m -629,-341 -3,-342 -33,-67 c -46,-93 -119,-143 -239,-163 l -43,-7 v 111 c 0,95 2,111 16,111 9,0 31,15 50,34 l 34,34 v 316 316 h 111 110 z" id="path850-2"></path>
      <path d="m 2973,1935 c -66,-28 -92,-118 -53,-182 54,-89 180,-81 222,14 31,71 0,144 -75,172 -37,14 -55,13 -94,-4 z" id="path852-8"></path>
      <path d="m 922,1924 c -74,-51 -66,-171 14,-209 110,-52 215,57 159,165 -28,55 -123,79 -173,44 z" id="path854-7"></path>
      <path d="m 2143,1930 c -63,-38 -81,-120 -40,-181 29,-43 60,-59 116,-59 37,0 49,5 82,39 33,33 39,45 39,82 0,107 -109,173 -197,119 z" id="path856-9"></path>
    </g>
  </g>
</svg>